<?xml version="1.0" encoding="UTF-8" standalone="no"?>
<!-- Created with Inkscape (http://www.inkscape.org/) -->

<svg
   xmlns:dc="http://purl.org/dc/elements/1.1/"
   xmlns:cc="http://creativecommons.org/ns#"
   xmlns:rdf="http://www.w3.org/1999/02/22-rdf-syntax-ns#"
   xmlns:svg="http://www.w3.org/2000/svg"
   xmlns="http://www.w3.org/2000/svg"
   xmlns:sodipodi="http://sodipodi.sourceforge.net/DTD/sodipodi-0.dtd"
   xmlns:inkscape="http://www.inkscape.org/namespaces/inkscape"
   width="135.43028mm"
   height="33.979355mm"
   viewBox="0 0 479.87107 120.39929"
   id="svg2"
   version="1.1"
   inkscape:version="0.91 r13725"
   sodipodi:docname="icons.svg">
  <defs
     id="defs4" />
  <sodipodi:namedview
     id="base"
     pagecolor="#ffffff"
     bordercolor="#666666"
     borderopacity="1.0"
     inkscape:pageopacity="0.0"
     inkscape:pageshadow="2"
     inkscape:zoom="1.5787565"
     inkscape:cx="197.00781"
     inkscape:cy="-3.5094506"
     inkscape:document-units="px"
     inkscape:current-layer="layer1"
     showgrid="true"
     inkscape:window-width="1440"
     inkscape:window-height="788"
     inkscape:window-x="0"
     inkscape:window-y="0"
     inkscape:window-maximized="1"
     fit-margin-top="0"
     fit-margin-left="0"
     fit-margin-right="0"
     fit-margin-bottom="0"
     inkscape:snap-bbox="true">
    <inkscape:grid
       type="xygrid"
       id="grid4384"
       originx="-0.12797977"
       originy="-19.727743" />
  </sodipodi:namedview>
  <metadata
     id="metadata7">
    <rdf:RDF>
      <cc:Work
         rdf:about="">
        <dc:format>image/svg+xml</dc:format>
        <dc:type
           rdf:resource="http://purl.org/dc/dcmitype/StillImage" />
        <dc:title />
      </cc:Work>
    </rdf:RDF>
  </metadata>
  <g
     inkscape:label="Layer 1"
     inkscape:groupmode="layer"
     id="layer1"
     transform="translate(-22.351335,-13.199405)">
    <path
       style="opacity:1;fill:#ffffff;fill-opacity:1;fill-rule:nonzero;stroke:none;stroke-width:5;stroke-linecap:round;stroke-linejoin:round;stroke-miterlimit:4;stroke-dasharray:none;stroke-opacity:1"
       d="m 260.17773,-5.6503906 a 20,20 0 0 0 -20,19.9999996 20,20 0 0 0 20,20 20,20 0 0 0 20,-20 20,20 0 0 0 -20,-19.9999996 z M 250,6.8945312 l 10,0 c 2.77,10e-8 5,2.2300003 5,4.9999998 l 0,5 c 0,0.512521 -0.0983,0.996096 -0.24023,1.460938 -1.39186,0.119569 -2.78122,0.116675 -3.93555,-0.466797 C 261.54773,17.123648 262,16.150759 262,15.072266 l 0,-1.177735 c 0,-2.443536 -2.23,-4.410156 -5,-4.410156 l -4,0 c -2.77,0 -5,1.96662 -5,4.410156 l 0,1.177735 c 0,2.443536 2.23,4.412109 5,4.412109 l 1.70898,0 c 0.56635,1.122725 1.20408,1.901599 1.88282,2.410156 l -6.5918,0 c -2.77,0 -5,-2.23 -5,-5 l 0,-5 c 0,-2.7699994 2.23,-4.9999998 5,-4.9999998 z m 13.49805,0.044922 6.59179,0 c 2.77,0 5,2.2300002 5,4.9999998 l 0,5 c 0,2.77 -2.23,5 -5,5 l -10,0 c -2.77,0 -5,-2.23 -5,-5 l 0,-5 c 0,-0.512521 0.0983,-0.996095 0.24024,-1.460937 1.39186,-0.119569 2.78121,-0.116674 3.93554,0.466796 -0.72351,0.765026 -1.17578,1.737914 -1.17578,2.816407 l 0,1.177734 c 0,2.443536 2.23,4.410156 5,4.410156 l 4,0 c 2.77,0 5,-1.96662 5,-4.410156 l 0,-1.177734 c 0,-2.443536 -2.23,-4.4121095 -5,-4.4121095 l -1.70898,0 C 264.81451,8.2268837 264.17679,7.44801 263.49805,6.9394532 Z"
       transform="translate(22.223356,18.976151)"
       id="circle4420"
       inkscape:connector-curvature="0" />
    <g
       transform="translate(22.35132,-999.03351)"
       id="layer1-6"
       inkscape:label="Layer 1">
      <path
         id="path4192"
         transform="translate(0,1012.3622)"
         d="M 20,0 A 20,20 0 0 0 0,20 20,20 0 0 0 20,40 20,20 0 0 0 40,20 20,20 0 0 0 20,0 Z M 9.59375,12.175781 20.3125,22.892578 30.763672,12.443359 34.298828,15.978516 20.21875,30.056641 16.683594,26.521484 16.777344,26.427734 6.0585938,15.710938 9.59375,12.175781 Z"
         style="opacity:1;fill:#ffffff;fill-opacity:1;fill-rule:nonzero;stroke:none;stroke-width:1;stroke-linecap:round;stroke-linejoin:round;stroke-miterlimit:4;stroke-dasharray:none;stroke-opacity:1"
         inkscape:connector-curvature="0" />
    </g>
    <g
       transform="translate(142.17902,-998.7908)"
       id="layer1-5"
       inkscape:label="Layer 1"
       style="fill:#ffffff;fill-opacity:1">
      <path
         id="path4143"
         transform="translate(0,1012.3622)"
         d="M 20,0 A 20,20 0 0 0 0,20 20,20 0 0 0 20,40 20,20 0 0 0 40,20 20,20 0 0 0 20,0 Z m -15,17 30,0 0,6 -30,0 0,-6 z"
         style="opacity:1;fill:#ffffff;fill-opacity:1;fill-rule:nonzero;stroke:none;stroke-width:5;stroke-linecap:round;stroke-linejoin:round;stroke-miterlimit:4;stroke-dasharray:none;stroke-opacity:1"
         inkscape:connector-curvature="0" />
    </g>
    <g
       inkscape:label="Layer 1"
       id="g4386"
       transform="matrix(1,0,0,-1,62.262034,1065.6909)">
      <path
         inkscape:connector-curvature="0"
         style="opacity:1;fill:#ffffff;fill-opacity:1;fill-rule:nonzero;stroke:none;stroke-width:1;stroke-linecap:round;stroke-linejoin:round;stroke-miterlimit:4;stroke-dasharray:none;stroke-opacity:1"
         d="M 20,0 A 20,20 0 0 0 0,20 20,20 0 0 0 20,40 20,20 0 0 0 40,20 20,20 0 0 0 20,0 Z M 9.59375,12.175781 20.3125,22.892578 30.763672,12.443359 34.298828,15.978516 20.21875,30.056641 16.683594,26.521484 16.777344,26.427734 6.0585938,15.710938 9.59375,12.175781 Z"
         transform="translate(0,1012.3622)"
         id="path4388" />
    </g>
    <g
       inkscape:label="Layer 1"
       id="g4390"
       transform="translate(142.30529,-958.7635)"
       style="fill:#cccccc;fill-opacity:1">
      <path
         inkscape:connector-curvature="0"
         style="opacity:1;fill:#cccccc;fill-opacity:1;fill-rule:nonzero;stroke:none;stroke-width:5;stroke-linecap:round;stroke-linejoin:round;stroke-miterlimit:4;stroke-dasharray:none;stroke-opacity:1"
         d="M 20,0 A 20,20 0 0 0 0,20 20,20 0 0 0 20,40 20,20 0 0 0 40,20 20,20 0 0 0 20,0 Z m -15,17 30,0 0,6 -30,0 0,-6 z"
         transform="translate(0,1012.3622)"
         id="path4392" />
    </g>
    <g
       inkscape:label="Layer 1"
       id="g4394"
       transform="translate(22.35132,-958.87994)"
       style="fill:#cccccc;fill-opacity:1">
      <path
         inkscape:connector-curvature="0"
         style="opacity:1;fill:#cccccc;fill-opacity:1;fill-rule:nonzero;stroke:none;stroke-width:1;stroke-linecap:round;stroke-linejoin:round;stroke-miterlimit:4;stroke-dasharray:none;stroke-opacity:1"
         d="M 20,0 A 20,20 0 0 0 0,20 20,20 0 0 0 20,40 20,20 0 0 0 40,20 20,20 0 0 0 20,0 Z M 9.59375,12.175781 20.3125,22.892578 30.763672,12.443359 34.298828,15.978516 20.21875,30.056641 16.683594,26.521484 16.777344,26.427734 6.0585938,15.710938 9.59375,12.175781 Z"
         transform="translate(0,1012.3622)"
         id="path4396" />
    </g>
    <g
       transform="matrix(1,0,0,-1,62.388303,1105.7182)"
       id="g4402"
       inkscape:label="Layer 1"
       style="fill:#cccccc;fill-opacity:1">
      <path
         id="path4404"
         transform="translate(0,1012.3622)"
         d="M 20,0 A 20,20 0 0 0 0,20 20,20 0 0 0 20,40 20,20 0 0 0 40,20 20,20 0 0 0 20,0 Z M 9.59375,12.175781 20.3125,22.892578 30.763672,12.443359 34.298828,15.978516 20.21875,30.056641 16.683594,26.521484 16.777344,26.427734 6.0585938,15.710938 9.59375,12.175781 Z"
         style="opacity:1;fill:#cccccc;fill-opacity:1;fill-rule:nonzero;stroke:none;stroke-width:1;stroke-linecap:round;stroke-linejoin:round;stroke-miterlimit:4;stroke-dasharray:none;stroke-opacity:1"
         inkscape:connector-curvature="0" />
    </g>
    <path
       style="opacity:1;fill:#cccccc;fill-opacity:1;fill-rule:nonzero;stroke:none;stroke-width:5;stroke-linecap:round;stroke-linejoin:round;stroke-miterlimit:4;stroke-dasharray:none;stroke-opacity:1"
       d="m 180,34.349609 a 20,20 0 0 0 -20,20 20,20 0 0 0 20,20 20,20 0 0 0 20,-20 20,20 0 0 0 -20,-20 z m -7.5,10 a 7.5253816,7.5253816 0 0 1 7.50586,7 l 0.0195,0 a 7.5253816,7.5253816 0 0 1 7.5,-7 7.5253816,7.5253816 0 0 1 7.52539,7.525391 7.5253816,7.5253816 0 0 1 -0.002,0.05859 C 195.38628,59.052402 184.86801,63.421513 180,69.349609 c -5.34496,-6.436628 -16.33159,-11.616636 -15,-18 a 7.5253816,7.5253816 0 0 1 7.5,-7 z"
       transform="translate(22.223356,18.976151)"
       id="path4406"
       inkscape:connector-curvature="0" />
    <path
       id="path4416"
       d="m 202.22335,13.415046 a 20,20 0 0 0 -20,20 20,20 0 0 0 20,20 20,20 0 0 0 20,-20 20,20 0 0 0 -20,-20 z m -7.5,10 a 7.5253816,7.5253816 0 0 1 7.50586,7 l 0.0195,0 a 7.5253816,7.5253816 0 0 1 7.5,-7 7.5253816,7.5253816 0 0 1 7.52539,7.525391 7.5253816,7.5253816 0 0 1 -0.002,0.05859 c 0.33745,7.118808 -10.18082,11.487919 -15.04883,17.416015 -5.34496,-6.436628 -16.33159,-11.616636 -15,-18 a 7.5253816,7.5253816 0 0 1 7.5,-7 z"
       style="opacity:1;fill:#ffffff;fill-opacity:1;fill-rule:nonzero;stroke:none;stroke-width:5;stroke-linecap:round;stroke-linejoin:round;stroke-miterlimit:4;stroke-dasharray:none;stroke-opacity:1"
       inkscape:connector-curvature="0" />
    <path
       id="path4455"
       d="m 282.14855,53.226786 a 20,20 0 0 0 -20,20 20,20 0 0 0 20,20 20,20 0 0 0 20,-20 20,20 0 0 0 -20,-20 z m -10.17773,12.544922 10,0 c 2.77,0 5,2.23 5,5 l 0,5 c 0,0.512521 -0.0983,0.996096 -0.24023,1.460938 -1.39186,0.119569 -2.78122,0.116675 -3.93555,-0.466797 0.72351,-0.765024 1.17578,-1.737913 1.17578,-2.816406 l 0,-1.177735 c 0,-2.443536 -2.23,-4.410156 -5,-4.410156 l -4,0 c -2.77,0 -5,1.96662 -5,4.410156 l 0,1.177735 c 0,2.443536 2.23,4.412109 5,4.412109 l 1.70898,0 c 0.56635,1.122725 1.20408,1.901599 1.88282,2.410156 l -6.5918,0 c -2.77,0 -5,-2.23 -5,-5 l 0,-5 c 0,-2.77 2.23,-5 5,-5 z m 13.49805,0.04492 6.59179,0 c 2.77,0 5,2.23 5,5 l 0,5 c 0,2.77 -2.23,5 -5,5 l -10,0 c -2.77,0 -5,-2.23 -5,-5 l 0,-5 c 0,-0.512521 0.0983,-0.996095 0.24024,-1.460937 1.39186,-0.119569 2.78121,-0.116674 3.93554,0.466796 -0.72351,0.765026 -1.17578,1.737914 -1.17578,2.816407 l 0,1.177734 c 0,2.443536 2.23,4.410156 5,4.410156 l 4,0 c 2.77,0 5,-1.96662 5,-4.410156 l 0,-1.177734 c 0,-2.443536 -2.23,-4.41211 -5,-4.41211 l -1.70898,0 c -0.56635,-1.122726 -1.20407,-1.9016 -1.88281,-2.410156 z"
       style="opacity:1;fill:#cccccc;fill-opacity:1;fill-rule:nonzero;stroke:none;stroke-width:5;stroke-linecap:round;stroke-linejoin:round;stroke-miterlimit:4;stroke-dasharray:none;stroke-opacity:1"
       inkscape:connector-curvature="0" />
    <g
       style="fill:#44cbe8;fill-opacity:1"
       transform="translate(142.30529,-918.7635)"
       id="g4457"
       inkscape:label="Layer 1">
      <path
         id="path4459"
         transform="translate(0,1012.3622)"
         d="M 20,0 A 20,20 0 0 0 0,20 20,20 0 0 0 20,40 20,20 0 0 0 40,20 20,20 0 0 0 20,0 Z m -15,17 30,0 0,6 -30,0 0,-6 z"
         style="opacity:1;fill:#44cbe8;fill-opacity:1;fill-rule:nonzero;stroke:none;stroke-width:5;stroke-linecap:round;stroke-linejoin:round;stroke-miterlimit:4;stroke-dasharray:none;stroke-opacity:1"
         inkscape:connector-curvature="0" />
    </g>
    <g
       style="fill:#44cbe8;fill-opacity:1"
       transform="translate(22.35132,-918.87994)"
       id="g4461"
       inkscape:label="Layer 1">
      <path
         id="path4463"
         transform="translate(0,1012.3622)"
         d="M 20,0 A 20,20 0 0 0 0,20 20,20 0 0 0 20,40 20,20 0 0 0 40,20 20,20 0 0 0 20,0 Z M 9.59375,12.175781 20.3125,22.892578 30.763672,12.443359 34.298828,15.978516 20.21875,30.056641 16.683594,26.521484 16.777344,26.427734 6.0585938,15.710938 9.59375,12.175781 Z"
         style="opacity:1;fill:#44cbe8;fill-opacity:1;fill-rule:nonzero;stroke:none;stroke-width:1;stroke-linecap:round;stroke-linejoin:round;stroke-miterlimit:4;stroke-dasharray:none;stroke-opacity:1"
         inkscape:connector-curvature="0" />
    </g>
    <g
       style="fill:#44cbe8;fill-opacity:1"
       inkscape:label="Layer 1"
       id="g4469"
       transform="matrix(1,0,0,-1,62.388303,1145.7182)">
      <path
         inkscape:connector-curvature="0"
         style="opacity:1;fill:#44cbe8;fill-opacity:1;fill-rule:nonzero;stroke:none;stroke-width:1;stroke-linecap:round;stroke-linejoin:round;stroke-miterlimit:4;stroke-dasharray:none;stroke-opacity:1"
         d="M 20,0 A 20,20 0 0 0 0,20 20,20 0 0 0 20,40 20,20 0 0 0 40,20 20,20 0 0 0 20,0 Z M 9.59375,12.175781 20.3125,22.892578 30.763672,12.443359 34.298828,15.978516 20.21875,30.056641 16.683594,26.521484 16.777344,26.427734 6.0585938,15.710938 9.59375,12.175781 Z"
         transform="translate(0,1012.3622)"
         id="path4471" />
    </g>
    <path
       id="path4473"
       d="m 202.22336,93.32576 a 20,20 0 0 0 -20,20 20,20 0 0 0 20,20 20,20 0 0 0 20,-20 20,20 0 0 0 -20,-20 z m -7.5,10 a 7.5253816,7.5253816 0 0 1 7.50586,7 l 0.0195,0 a 7.5253816,7.5253816 0 0 1 7.5,-7 7.5253816,7.5253816 0 0 1 7.52539,7.52539 7.5253816,7.5253816 0 0 1 -0.002,0.0586 c 0.33745,7.1188 -10.18082,11.48791 -15.04883,17.41601 -5.34496,-6.43663 -16.33159,-11.61664 -15,-18 a 7.5253816,7.5253816 0 0 1 7.5,-7 z"
       style="opacity:1;fill:#44cbe8;fill-opacity:1;fill-rule:nonzero;stroke:none;stroke-width:5;stroke-linecap:round;stroke-linejoin:round;stroke-miterlimit:4;stroke-dasharray:none;stroke-opacity:1"
       inkscape:connector-curvature="0" />
    <path
       inkscape:connector-curvature="0"
       style="opacity:1;fill:#44cbe8;fill-opacity:1;fill-rule:nonzero;stroke:none;stroke-width:5;stroke-linecap:round;stroke-linejoin:round;stroke-miterlimit:4;stroke-dasharray:none;stroke-opacity:1"
       d="m 282.14855,93.226786 a 20,20 0 0 0 -20,20.000004 20,20 0 0 0 20,20 20,20 0 0 0 20,-20 20,20 0 0 0 -20,-20.000004 z m -10.17773,12.544924 10,0 c 2.77,0 5,2.23 5,5 l 0,5 c 0,0.51252 -0.0983,0.99609 -0.24023,1.46094 -1.39186,0.11957 -2.78122,0.11667 -3.93555,-0.4668 0.72351,-0.76502 1.17578,-1.73791 1.17578,-2.81641 l 0,-1.17773 c 0,-2.44354 -2.23,-4.41016 -5,-4.41016 l -4,0 c -2.77,0 -5,1.96662 -5,4.41016 l 0,1.17773 c 0,2.44354 2.23,4.41211 5,4.41211 l 1.70898,0 c 0.56635,1.12273 1.20408,1.9016 1.88282,2.41016 l -6.5918,0 c -2.77,0 -5,-2.23 -5,-5 l 0,-5 c 0,-2.77 2.23,-5 5,-5 z m 13.49805,0.0449 6.59179,0 c 2.77,0 5,2.23 5,5 l 0,5 c 0,2.77 -2.23,5 -5,5 l -10,0 c -2.77,0 -5,-2.23 -5,-5 l 0,-5 c 0,-0.51252 0.0983,-0.9961 0.24024,-1.46094 1.39186,-0.11957 2.78121,-0.11667 3.93554,0.4668 -0.72351,0.76502 -1.17578,1.73791 -1.17578,2.8164 l 0,1.17774 c 0,2.44353 2.23,4.41015 5,4.41015 l 4,0 c 2.77,0 5,-1.96662 5,-4.41015 l 0,-1.17774 c 0,-2.44353 -2.23,-4.41211 -5,-4.41211 l -1.70898,0 c -0.56635,-1.12272 -1.20407,-1.9016 -1.88281,-2.41015 z"
       id="path4477" />
    <path
       inkscape:connector-curvature="0"
       id="path4169"
       transform="translate(22.223356,18.976151)"
       d="m 180,34.349609 a 20,20 0 0 0 -20,20 20,20 0 0 0 20,20 20,20 0 0 0 20,-20 20,20 0 0 0 -20,-20 z m -7.5,10 a 7.5253816,7.5253816 0 0 1 7.50586,7 l 0.0195,0 a 7.5253816,7.5253816 0 0 1 7.5,-7 7.5253816,7.5253816 0 0 1 7.52539,7.525391 7.5253816,7.5253816 0 0 1 -0.002,0.05859 C 195.38628,59.052402 184.86801,63.421513 180,69.349609 c -5.34496,-6.436628 -16.33159,-11.616636 -15,-18 a 7.5253816,7.5253816 0 0 1 7.5,-7 z"
       style="opacity:1;fill:#cccccc;fill-opacity:1;fill-rule:nonzero;stroke:none;stroke-width:5;stroke-linecap:round;stroke-linejoin:round;stroke-miterlimit:4;stroke-dasharray:none;stroke-opacity:1" />
    <path
       inkscape:connector-curvature="0"
       style="opacity:1;fill:#ffffff;fill-opacity:1;fill-rule:nonzero;stroke:none;stroke-width:5;stroke-linecap:round;stroke-linejoin:round;stroke-miterlimit:4;stroke-dasharray:none;stroke-opacity:1"
       d="m 202.22335,13.415046 a 20,20 0 0 0 -20,20 20,20 0 0 0 20,20 20,20 0 0 0 20,-20 20,20 0 0 0 -20,-20 z m -7.5,10 a 7.5253816,7.5253816 0 0 1 7.50586,7 l 0.0195,0 a 7.5253816,7.5253816 0 0 1 7.5,-7 7.5253816,7.5253816 0 0 1 7.52539,7.525391 7.5253816,7.5253816 0 0 1 -0.002,0.05859 c 0.33745,7.118808 -10.18082,11.487919 -15.04883,17.416015 -5.34496,-6.436628 -16.33159,-11.616636 -15,-18 a 7.5253816,7.5253816 0 0 1 7.5,-7 z"
       id="path4171" />
    <path
       inkscape:connector-curvature="0"
       style="opacity:1;fill:#44cbe8;fill-opacity:1;fill-rule:nonzero;stroke:none;stroke-width:5;stroke-linecap:round;stroke-linejoin:round;stroke-miterlimit:4;stroke-dasharray:none;stroke-opacity:1"
       d="m 202.22336,93.32576 a 20,20 0 0 0 -20,20 20,20 0 0 0 20,20 20,20 0 0 0 20,-20 20,20 0 0 0 -20,-20 z m -7.5,10 a 7.5253816,7.5253816 0 0 1 7.50586,7 l 0.0195,0 a 7.5253816,7.5253816 0 0 1 7.5,-7 7.5253816,7.5253816 0 0 1 7.52539,7.52539 7.5253816,7.5253816 0 0 1 -0.002,0.0586 c 0.33745,7.1188 -10.18082,11.48791 -15.04883,17.41601 -5.34496,-6.43663 -16.33159,-11.61664 -15,-18 a 7.5253816,7.5253816 0 0 1 7.5,-7 z"
       id="path4173" />
    <path
       inkscape:connector-curvature="0"
       style="opacity:1;fill:#ffffff;fill-opacity:1;fill-rule:nonzero;stroke:none;stroke-width:5;stroke-linecap:round;stroke-linejoin:round;stroke-miterlimit:4;stroke-dasharray:none;stroke-opacity:1"
       d="m 322.22336,13.772189 a 20,20 0 0 0 -20,20 20,20 0 0 0 20,20 20,20 0 0 0 20,-20 20,20 0 0 0 -20,-20 z m -7.5,10 a 7.5253816,7.5253816 0 0 1 7.50586,7 l 0.0195,0 a 7.5253816,7.5253816 0 0 1 7.5,-7 7.5253816,7.5253816 0 0 1 7.52539,7.525391 7.5253816,7.5253816 0 0 1 -0.002,0.05859 c 0.33745,7.118808 -10.18082,11.487919 -15.04883,17.416015 -5.34496,-6.436628 -16.33159,-11.616636 -15,-18 a 7.5253816,7.5253816 0 0 1 7.5,-7 z"
       id="path4177" />
    <path
       style="opacity:1;fill:#ffffff;fill-opacity:1;fill-rule:nonzero;stroke:none;stroke-width:5;stroke-linecap:round;stroke-linejoin:round;stroke-miterlimit:4;stroke-dasharray:none;stroke-opacity:1"
       d="m 299.69336,0.08984375 a 20,19.999999 0 0 0 -20,20.00000025 20,19.999999 0 0 0 20,20 20,19.999999 0 0 0 20,-20 20,19.999999 0 0 0 -20,-20.00000025 z m -7.5,10.00000025 a 7.5253816,7.5253812 0 0 1 7.50586,7 l 0.0195,0 a 7.5253816,7.5253812 0 0 1 7.5,-7 7.5253816,7.5253812 0 0 1 7.52539,7.52539 7.5253816,7.5253812 0 0 1 -0.002,0.05859 c 0.33745,7.118808 -10.18082,11.48792 -15.04883,17.416016 -5.34496,-6.436628 -16.33159,-11.616637 -15,-18 a 7.5253816,7.5253812 0 0 1 7.5,-7 z m 15.44336,2.183594 c -0.35688,0.01313 -0.70932,0.06067 -1.04883,0.134765 -2.71608,0.592755 -6.26731,6.257445 -6.58008,10.105469 -0.43714,-3.706287 -3.13607,-8.513093 -6.42969,-9.382813 -3.29361,-0.86972 -6.70585,-0.130858 -6.25976,5.738282 0.44609,5.869139 9.40245,8.652493 12.64453,13.253906 3.308,-4.601413 12.27926,-7.673631 12.59375,-13.398438 0.27518,-5.009205 -2.42175,-6.543088 -4.91992,-6.451171 z"
       transform="translate(22.35132,13.32576)"
       id="path4183"
       inkscape:connector-curvature="0" />
    <path
       id="path4217"
       d="m 322.28221,53.350061 a 20,19.999999 0 0 0 -20,20 20,19.999999 0 0 0 20,20 20,19.999999 0 0 0 20,-20 20,19.999999 0 0 0 -20,-20 z m -7.5,10 a 7.5253816,7.5253812 0 0 1 7.50586,7 l 0.0195,0 a 7.5253816,7.5253812 0 0 1 7.5,-7 7.5253816,7.5253812 0 0 1 7.52539,7.52539 7.5253816,7.5253812 0 0 1 -0.002,0.05859 c 0.33745,7.118808 -10.18082,11.48792 -15.04883,17.416016 -5.34496,-6.436628 -16.33159,-11.616637 -15,-18 a 7.5253816,7.5253812 0 0 1 7.5,-7 z m 15.44336,2.183594 c -0.35688,0.01313 -0.70932,0.06067 -1.04883,0.134765 -2.71608,0.592755 -6.26731,6.257445 -6.58008,10.105469 -0.43714,-3.706287 -3.13607,-8.513093 -6.42969,-9.382813 -3.29361,-0.86972 -6.70585,-0.130858 -6.25976,5.738282 0.44609,5.869139 9.40245,8.652493 12.64453,13.253906 3.308,-4.601413 12.27926,-7.673631 12.59375,-13.398438 0.27518,-5.009205 -2.42175,-6.543088 -4.91992,-6.451171 z"
       style="opacity:1;fill:#cccccc;fill-opacity:1;fill-rule:nonzero;stroke:none;stroke-width:5;stroke-linecap:round;stroke-linejoin:round;stroke-miterlimit:4;stroke-dasharray:none;stroke-opacity:1"
       inkscape:connector-curvature="0" />
    <path
       inkscape:connector-curvature="0"
       style="opacity:1;fill:#44cbe8;fill-opacity:1;fill-rule:nonzero;stroke:none;stroke-width:5;stroke-linecap:round;stroke-linejoin:round;stroke-miterlimit:4;stroke-dasharray:none;stroke-opacity:1"
       d="m 322.28221,93.334063 a 20,19.999999 0 0 0 -20,19.999997 20,19.999999 0 0 0 20,20.00001 20,19.999999 0 0 0 20,-20.00001 20,19.999999 0 0 0 -20,-19.999997 z m -7.5,9.999997 a 7.5253816,7.5253812 0 0 1 7.50586,7 l 0.0195,0 a 7.5253816,7.5253812 0 0 1 7.5,-7 7.5253816,7.5253812 0 0 1 7.52539,7.52539 7.5253816,7.5253812 0 0 1 -0.002,0.0586 c 0.33745,7.11882 -10.18082,11.48793 -15.04883,17.41602 -5.34496,-6.43662 -16.33159,-11.61663 -15,-18 a 7.5253816,7.5253812 0 0 1 7.5,-7 z m 15.44336,2.1836 c -0.35688,0.0131 -0.70932,0.0607 -1.04883,0.13476 -2.71608,0.59276 -6.26731,6.25745 -6.58008,10.10548 -0.43714,-3.7063 -3.13607,-8.5131 -6.42969,-9.38282 -3.29361,-0.86972 -6.70585,-0.13086 -6.25976,5.73828 0.44609,5.86914 9.40245,8.6525 12.64453,13.25391 3.308,-4.60141 12.27926,-7.67363 12.59375,-13.39844 0.27518,-5.00921 -2.42175,-6.54309 -4.91992,-6.45117 z"
       id="path4219" />
    <path
       style="opacity:1;fill:#ffffff;fill-opacity:1;fill-rule:nonzero;stroke:none;stroke-width:5;stroke-linecap:round;stroke-linejoin:round;stroke-miterlimit:4;stroke-dasharray:none;stroke-opacity:1"
       d="m 339.87109,0 a 20,19.999999 0 0 0 -20,20 20,19.999999 0 0 0 20,20 20,19.999999 0 0 0 20,-20 20,19.999999 0 0 0 -20,-20 z m -8.56445,6.4179688 a 7.5,7.4999976 0 0 1 7.19336,5.3964842 8.3397908,7.8593974 0 0 0 -6.8457,7.726563 8.3397908,7.8593974 0 0 0 1.90625,4.992187 10.563735,11.003154 0 0 0 -4.14844,7.472656 17,16.999993 0 0 1 -3.85938,-0.888671 19,18.999999 0 0 1 -3.58984,-6.396485 9.5,10.499993 0 0 1 3.55859,-6.039062 7.5,7.4999976 0 0 1 -1.71484,-4.763672 7.5,7.4999976 0 0 1 7.5,-7.5000002 z m 17.63477,0.5605468 a 7.5,7.4999976 0 0 1 7.5,7.5000004 7.5,7.4999976 0 0 1 -1.7793,4.849609 9.5,10.499993 0 0 1 3.33398,5.490234 19,18.999999 0 0 1 -4.34179,7.154297 17,16.999993 0 0 1 -3.22852,0.628906 10.563735,11.003154 0 0 0 -4.07031,-7.978515 8.3397908,7.8593974 0 0 0 1.97851,-5.082031 8.3397908,7.8593974 0 0 0 -6.42773,-7.642578 7.5,7.4999976 0 0 1 7.03516,-4.9199224 z m -8.95703,5.3183594 a 7.5,7.4999988 0 0 1 7.5,7.5 7.5,7.4999988 0 0 1 -1.7793,4.849609 9.5,10.499996 0 0 1 3.6914,8.300782 9.5,10.499996 0 0 1 -0.23437,2.285156 A 17,16.999996 0 0 1 339.87109,38 a 17,16.999996 0 0 1 -9.23047,-2.742188 9.5,10.499996 0 0 1 -0.24414,-2.310546 9.5,10.499996 0 0 1 3.80274,-8.386719 7.5,7.4999988 0 0 1 -1.71484,-4.763672 7.5,7.4999988 0 0 1 7.5,-7.5 z"
       transform="translate(22.35132,13.32576)"
       id="path4176"
       inkscape:connector-curvature="0" />
    <path
       id="path4231"
       d="m 362.22241,53.411777 a 20,19.999999 0 0 0 -20,20 20,19.999999 0 0 0 20,20 20,19.999999 0 0 0 20,-20 20,19.999999 0 0 0 -20,-20 z m -8.56445,6.417968 a 7.5,7.4999976 0 0 1 7.19336,5.396485 8.3397908,7.8593974 0 0 0 -6.8457,7.726563 8.3397908,7.8593974 0 0 0 1.90625,4.992187 10.563735,11.003154 0 0 0 -4.14844,7.472656 17,16.999993 0 0 1 -3.85938,-0.888671 19,18.999999 0 0 1 -3.58984,-6.396485 9.5,10.499993 0 0 1 3.55859,-6.039062 7.5,7.4999976 0 0 1 -1.71484,-4.763672 7.5,7.4999976 0 0 1 7.5,-7.500001 z m 17.63477,0.560547 a 7.5,7.4999976 0 0 1 7.5,7.500001 7.5,7.4999976 0 0 1 -1.7793,4.849609 9.5,10.499993 0 0 1 3.33398,5.490234 19,18.999999 0 0 1 -4.34179,7.154297 17,16.999993 0 0 1 -3.22852,0.628906 10.563735,11.003154 0 0 0 -4.07031,-7.978515 8.3397908,7.8593974 0 0 0 1.97851,-5.082031 8.3397908,7.8593974 0 0 0 -6.42773,-7.642578 7.5,7.4999976 0 0 1 7.03516,-4.919923 z m -8.95703,5.31836 a 7.5,7.4999988 0 0 1 7.5,7.5 7.5,7.4999988 0 0 1 -1.7793,4.849609 9.5,10.499996 0 0 1 3.6914,8.300782 9.5,10.499996 0 0 1 -0.23437,2.285156 17,16.999996 0 0 1 -9.29102,2.767578 17,16.999996 0 0 1 -9.23047,-2.742188 9.5,10.499996 0 0 1 -0.24414,-2.310546 9.5,10.499996 0 0 1 3.80274,-8.386719 7.5,7.4999988 0 0 1 -1.71484,-4.763672 7.5,7.4999988 0 0 1 7.5,-7.5 z"
       style="opacity:1;fill:#cccccc;fill-opacity:1;fill-rule:nonzero;stroke:none;stroke-width:5;stroke-linecap:round;stroke-linejoin:round;stroke-miterlimit:4;stroke-dasharray:none;stroke-opacity:1"
       inkscape:connector-curvature="0" />
    <path
       inkscape:connector-curvature="0"
       style="opacity:1;fill:#44cbe8;fill-opacity:1;fill-rule:nonzero;stroke:none;stroke-width:5;stroke-linecap:round;stroke-linejoin:round;stroke-miterlimit:4;stroke-dasharray:none;stroke-opacity:1"
       d="m 362.22241,93.395778 a 20,19.999999 0 0 0 -20,20.000002 20,19.999999 0 0 0 20,20 20,19.999999 0 0 0 20,-20 20,19.999999 0 0 0 -20,-20.000002 z m -8.56445,6.417968 a 7.5,7.4999976 0 0 1 7.19336,5.396484 8.3397908,7.8593974 0 0 0 -6.8457,7.72657 8.3397908,7.8593974 0 0 0 1.90625,4.99218 10.563735,11.003154 0 0 0 -4.14844,7.47266 17,16.999993 0 0 1 -3.85938,-0.88867 19,18.999999 0 0 1 -3.58984,-6.39649 9.5,10.499993 0 0 1 3.55859,-6.03906 7.5,7.4999976 0 0 1 -1.71484,-4.76367 7.5,7.4999976 0 0 1 7.5,-7.500004 z m 17.63477,0.560544 a 7.5,7.4999976 0 0 1 7.5,7.50001 7.5,7.4999976 0 0 1 -1.7793,4.84961 9.5,10.499993 0 0 1 3.33398,5.49023 19,18.999999 0 0 1 -4.34179,7.1543 17,16.999993 0 0 1 -3.22852,0.6289 10.563735,11.003154 0 0 0 -4.07031,-7.97851 8.3397908,7.8593974 0 0 0 1.97851,-5.08203 8.3397908,7.8593974 0 0 0 -6.42773,-7.64258 7.5,7.4999976 0 0 1 7.03516,-4.91993 z m -8.95703,5.31837 a 7.5,7.4999988 0 0 1 7.5,7.5 7.5,7.4999988 0 0 1 -1.7793,4.8496 9.5,10.499996 0 0 1 3.6914,8.30079 9.5,10.499996 0 0 1 -0.23437,2.28515 17,16.999996 0 0 1 -9.29102,2.76758 17,16.999996 0 0 1 -9.23047,-2.74219 9.5,10.499996 0 0 1 -0.24414,-2.31054 9.5,10.499996 0 0 1 3.80274,-8.38672 7.5,7.4999988 0 0 1 -1.71484,-4.76367 7.5,7.4999988 0 0 1 7.5,-7.5 z"
       id="path4233" />
    <path
       style="opacity:1;fill:#ffffff;fill-opacity:1;fill-rule:nonzero;stroke:none;stroke-width:5;stroke-linecap:round;stroke-linejoin:round;stroke-miterlimit:4;stroke-dasharray:none;stroke-opacity:1"
       d="m 379.87109,0 a 19.999999,19.999999 0 0 0 -20,20 19.999999,19.999999 0 0 0 20,20 19.999999,19.999999 0 0 0 20,-20 19.999999,19.999999 0 0 0 -20,-20 z m -7,7 14,0 c 2.34089,0 4.27852,1.6003977 4.82813,3.765625 l -2.08984,1.736328 c -0.6321,-2.036289 -2.50242,-3.517578 -4.75196,-3.517578 l -10,0 c -2.77,0 -5,2.23 -5,5 l 0,12 c 0,2.77 2.23,5 5,5 l 10,0 c 2.77,0 5,-2.23 5,-5 l 0,-4.511719 2.01367,-1.671875 0,8.199219 c 0,2.77 -2.23,5 -5,5 l -14,0 c -2.77,0 -5,-2.23 -5,-5 l 0,-16 c 0,-2.7699992 2.23,-5 5,-5 z m 21.26758,2.9746094 3.28516,3.9374996 -13.05469,10.890625 -3.28516,-3.939453 13.05469,-10.8886716 z m -13.82226,11.5292966 3.20312,3.839844 -4.67383,0.642578 1.47071,-4.482422 z"
       transform="translate(22.35132,13.32576)"
       id="path4187"
       inkscape:connector-curvature="0" />
    <path
       id="path4209"
       d="m 402.22241,53.299805 a 19.999999,19.999999 0 0 0 -20,20 19.999999,19.999999 0 0 0 20,20 19.999999,19.999999 0 0 0 20,-20 19.999999,19.999999 0 0 0 -20,-20 z m -7,7 14,0 c 2.34089,0 4.27852,1.600397 4.82813,3.765625 l -2.08984,1.736328 c -0.6321,-2.036289 -2.50242,-3.517578 -4.75196,-3.517578 l -10,0 c -2.77,0 -5,2.23 -5,5 l 0,12 c 0,2.77 2.23,5 5,5 l 10,0 c 2.77,0 5,-2.23 5,-5 l 0,-4.511719 2.01367,-1.671875 0,8.199219 c 0,2.77 -2.23,5 -5,5 l -14,0 c -2.77,0 -5,-2.23 -5,-5 l 0,-16 c 0,-2.77 2.23,-5 5,-5 z m 21.26758,2.974609 3.28516,3.9375 -13.05469,10.890625 -3.28516,-3.939453 13.05469,-10.888672 z m -13.82226,11.529297 3.20312,3.839844 -4.67383,0.642578 1.47071,-4.482422 z"
       style="opacity:1;fill:#cccccc;fill-opacity:1;fill-rule:nonzero;stroke:none;stroke-width:5;stroke-linecap:round;stroke-linejoin:round;stroke-miterlimit:4;stroke-dasharray:none;stroke-opacity:1"
       inkscape:connector-curvature="0" />
    <path
       inkscape:connector-curvature="0"
       style="opacity:1;fill:#44cbe8;fill-opacity:1;fill-rule:nonzero;stroke:none;stroke-width:5;stroke-linecap:round;stroke-linejoin:round;stroke-miterlimit:4;stroke-dasharray:none;stroke-opacity:1"
       d="m 402.22241,93.27385 a 19.999999,19.999999 0 0 0 -20,20 19.999999,19.999999 0 0 0 20,20 19.999999,19.999999 0 0 0 20,-20 19.999999,19.999999 0 0 0 -20,-20 z m -7,7 14,0 c 2.34089,0 4.27852,1.6004 4.82813,3.76562 l -2.08984,1.73633 c -0.6321,-2.03629 -2.50242,-3.51758 -4.75196,-3.51758 l -10,0 c -2.77,0 -5,2.23 -5,5 l 0,12 c 0,2.77 2.23,5 5,5 l 10,0 c 2.77,0 5,-2.23 5,-5 l 0,-4.51171 2.01367,-1.67188 0,8.19922 c 0,2.77 -2.23,5 -5,5 l -14,0 c -2.77,0 -5,-2.23 -5,-5 l 0,-16 c 0,-2.77 2.23,-5 5,-5 z m 21.26758,2.97461 3.28516,3.9375 -13.05469,10.89062 -3.28516,-3.93945 13.05469,-10.88867 z m -13.82226,11.5293 3.20312,3.83984 -4.67383,0.64258 1.47071,-4.48242 z"
       id="path4211" />
    <path
       style="opacity:1;fill:#44cbe8;fill-opacity:1;fill-rule:nonzero;stroke:none;stroke-width:5;stroke-linecap:round;stroke-linejoin:round;stroke-miterlimit:4;stroke-dasharray:none;stroke-opacity:1"
       d="m 419.87109,80 a 19.999999,19.999999 0 0 0 -20,20 19.999999,19.999999 0 0 0 20,20 19.999999,19.999999 0 0 0 20,-20 19.999999,19.999999 0 0 0 -20,-20 z m -1,7 2,0 c 0.554,0 1,0.446 1,1 l 0,1 c 0,0.554 -0.446,1 -1,1 l -2,0 c -0.554,0 -1,-0.446 -1,-1 l 0,-1 c 0,-0.554 0.446,-1 1,-1 z m -10,4 22,0 c 0.554,0 1,0.446 1,1 l 0,1 c 0,0.554 -0.446,1 -1,1 l -22,0 c -0.554,0 -1,-0.446 -1,-1 l 0,-1 c 0,-0.554 0.446,-1 1,-1 z m 2.93555,4.056641 15.96094,0 c 1.662,0 3.10655,1.341419 3,3 L 429.87109,112 c -0.10655,1.65858 -1.338,3 -3,3 l -14,0 c -1.662,0 -2.87358,-1.34282 -3,-3 l -1.06445,-13.943359 c -0.12642,-1.657185 1.338,-3 3,-3 z m 8.0957,2.77539 c -0.55399,0 -1,0.892 -1,2 l 0,9.999999 c 0,1.108 0.44601,2 1,2 0.55399,0 1,-0.892 1,-2 l 0,-9.999999 c 0,-1.108 -0.44601,-2 -1,-2 z M 415.03125,98 c -0.55399,0 -0.99805,0.892 -0.99805,2 l 0,10 c 0,1.108 0.44406,2 0.99805,2 0.55399,0 1,-0.892 1,-2 l 0,-10 c 0,-1.108 -0.44601,-2 -1,-2 z m 9.85547,0.167969 c -0.55399,0 -1,0.891997 -1,2.000001 l 0,10 c 0,1.108 0.44601,2 1,2 0.55399,0 0.99805,-0.892 0.99805,-2 l 0,-10 c 0,-1.108004 -0.44406,-2.000001 -0.99805,-2.000001 z"
       transform="translate(22.35132,13.32576)"
       id="path4213"
       inkscape:connector-curvature="0" />
    <path
       id="path4257"
       d="m 442.22241,53.420935 a 19.999999,19.999999 0 0 0 -20,20 19.999999,19.999999 0 0 0 20,20 19.999999,19.999999 0 0 0 20,-20 19.999999,19.999999 0 0 0 -20,-20 z m -1,7 2,0 c 0.554,0 1,0.446 1,1 l 0,1 c 0,0.554 -0.446,1 -1,1 l -2,0 c -0.554,0 -1,-0.446 -1,-1 l 0,-1 c 0,-0.554 0.446,-1 1,-1 z m -10,4 22,0 c 0.554,0 1,0.446 1,1 l 0,1 c 0,0.554 -0.446,1 -1,1 l -22,0 c -0.554,0 -1,-0.446 -1,-1 l 0,-1 c 0,-0.554 0.446,-1 1,-1 z m 2.93555,4.056641 15.96094,0 c 1.662,0 3.10655,1.341419 3,3 l -0.89649,13.943359 c -0.10655,1.65858 -1.338,3 -3,3 l -14,0 c -1.662,0 -2.87358,-1.34282 -3,-3 l -1.06445,-13.943359 c -0.12642,-1.657185 1.338,-3 3,-3 z m 8.0957,2.77539 c -0.55399,0 -1,0.892 -1,2 l 0,9.999999 c 0,1.108 0.44601,2 1,2 0.55399,0 1,-0.892 1,-2 l 0,-9.999999 c 0,-1.108 -0.44601,-2 -1,-2 z m -4.87109,0.167969 c -0.55399,0 -0.99805,0.892 -0.99805,2 l 0,10 c 0,1.108 0.44406,2 0.99805,2 0.55399,0 1,-0.892 1,-2 l 0,-10 c 0,-1.108 -0.44601,-2 -1,-2 z m 9.85547,0.167969 c -0.55399,0 -1,0.891997 -1,2.000001 l 0,10 c 0,1.108 0.44601,2 1,2 0.55399,0 0.99805,-0.892 0.99805,-2 l 0,-10 c 0,-1.108004 -0.44406,-2.000001 -0.99805,-2.000001 z"
       style="opacity:1;fill:#cccccc;fill-opacity:1;fill-rule:nonzero;stroke:none;stroke-width:5;stroke-linecap:round;stroke-linejoin:round;stroke-miterlimit:4;stroke-dasharray:none;stroke-opacity:1"
       inkscape:connector-curvature="0" />
    <path
       inkscape:connector-curvature="0"
       style="opacity:1;fill:#ffffff;fill-opacity:1;fill-rule:nonzero;stroke:none;stroke-width:5;stroke-linecap:round;stroke-linejoin:round;stroke-miterlimit:4;stroke-dasharray:none;stroke-opacity:1"
       d="m 442.22241,13.199405 a 19.999999,19.999999 0 0 0 -20,20 19.999999,19.999999 0 0 0 20,20 19.999999,19.999999 0 0 0 20,-20 19.999999,19.999999 0 0 0 -20,-20 z m -1,7 2,0 c 0.554,0 1,0.446 1,1 l 0,1 c 0,0.554 -0.446,1 -1,1 l -2,0 c -0.554,0 -1,-0.446 -1,-1 l 0,-1 c 0,-0.554 0.446,-1 1,-1 z m -10,4 22,0 c 0.554,0 1,0.446 1,1 l 0,1 c 0,0.554 -0.446,1 -1,1 l -22,0 c -0.554,0 -1,-0.446 -1,-1 l 0,-1 c 0,-0.554 0.446,-1 1,-1 z m 2.93555,4.056641 15.96094,0 c 1.662,0 3.10655,1.341419 3,3 l -0.89649,13.943359 c -0.10655,1.65858 -1.338,3 -3,3 l -14,0 c -1.662,0 -2.87358,-1.34282 -3,-3 l -1.06445,-13.943359 c -0.12642,-1.657185 1.338,-3 3,-3 z m 8.0957,2.77539 c -0.55399,0 -1,0.892 -1,2 l 0,9.999999 c 0,1.108 0.44601,2 1,2 0.55399,0 1,-0.892 1,-2 l 0,-9.999999 c 0,-1.108 -0.44601,-2 -1,-2 z m -4.87109,0.167969 c -0.55399,0 -0.99805,0.892 -0.99805,2 l 0,10 c 0,1.108 0.44406,2 0.99805,2 0.55399,0 1,-0.892 1,-2 l 0,-10 c 0,-1.108 -0.44601,-2 -1,-2 z m 9.85547,0.167969 c -0.55399,0 -1,0.891997 -1,2.000001 l 0,10 c 0,1.108 0.44601,2 1,2 0.55399,0 0.99805,-0.892 0.99805,-2 l 0,-10 c 0,-1.108004 -0.44406,-2.000001 -0.99805,-2.000001 z"
       id="path4259" />
    <path
       style="opacity:1;fill:#ffffff;fill-opacity:1;fill-rule:nonzero;stroke:none;stroke-width:3;stroke-linecap:round;stroke-linejoin:round;stroke-miterlimit:4;stroke-dasharray:none;stroke-opacity:1"
       d="m 459.87109,0 a 19.999998,19.999998 0 0 0 -20,20 19.999998,19.999998 0 0 0 20,20 19.999998,19.999998 0 0 0 20,-20 19.999998,19.999998 0 0 0 -20,-20 z m 0.0586,9.1933594 c 2.14587,0.017238 4.38099,0.6175671 6.62695,1.8945316 2.99462,1.70262 6.04208,4.563938 9.27539,8.847656 l 0.66406,0.880859 -0.64257,0.896485 C 470.70688,28.89208 465.27657,32.595406 459.60156,32.470703 453.92656,32.346 448.58013,28.463911 443.44336,21.75 l -0.73633,-0.960938 0.7832,-0.921874 c 4.28363,-5.042908 8.78601,-9.537753 14.32618,-10.5000005 0.69252,-0.120281 1.39799,-0.1795742 2.11328,-0.1738281 z m -0.0117,2.9902346 c -0.53566,-9.13e-4 -1.06344,0.04758 -1.58789,0.138672 -3.89481,0.676473 -7.78607,4.183516 -11.6543,8.583984 4.55333,5.621486 8.92178,8.475013 12.99219,8.564453 4.1006,0.09011 8.43018,-2.567629 13.00391,-8.601562 -2.76113,-3.478408 -5.3236,-5.879779 -7.59961,-7.173829 -1.86966,-1.063016 -3.54732,-1.50898 -5.1543,-1.511718 z m -0.23828,1.550781 a 7.4999988,7.4999988 0 0 1 7.5,7.5 7.4999988,7.4999988 0 0 1 -7.5,7.5 7.4999988,7.4999988 0 0 1 -7.5,-7.5 7.4999988,7.4999988 0 0 1 7.5,-7.5 z m 3.05859,2.595703 a 1.4999996,1.4999996 0 0 0 -1.5,1.5 1.4999996,1.4999996 0 0 0 1.5,1.5 1.4999996,1.4999996 0 0 0 1.5,-1.5 1.4999996,1.4999996 0 0 0 -1.5,-1.5 z M 457.37109,17 a 2.4999996,2.4999996 0 0 0 -2.5,2.5 2.4999996,2.4999996 0 0 0 2.5,2.5 2.4999996,2.4999996 0 0 0 2.5,-2.5 2.4999996,2.4999996 0 0 0 -2.5,-2.5 z"
       transform="translate(22.35132,13.32576)"
       id="path4261"
       inkscape:connector-curvature="0" />
    <path
       id="path4288"
       d="m 482.22241,53.388938 a 19.999998,19.999998 0 0 0 -20,20 19.999998,19.999998 0 0 0 20,20 19.999998,19.999998 0 0 0 20,-20 19.999998,19.999998 0 0 0 -20,-20 z m 0.0586,9.193359 c 2.14587,0.01724 4.38099,0.617567 6.62695,1.894532 2.99462,1.70262 6.04208,4.563938 9.27539,8.847656 l 0.66406,0.880859 -0.64257,0.896485 c -5.14664,7.179189 -10.57695,10.882515 -16.25196,10.757812 -5.675,-0.124703 -11.02143,-4.006792 -16.1582,-10.720703 l -0.73633,-0.960938 0.7832,-0.921874 c 4.28363,-5.042908 8.78601,-9.537753 14.32618,-10.500001 0.69252,-0.120281 1.39799,-0.179574 2.11328,-0.173828 z m -0.0117,2.990235 c -0.53566,-9.13e-4 -1.06344,0.04758 -1.58789,0.138672 -3.89481,0.676473 -7.78607,4.183516 -11.6543,8.583984 4.55333,5.621486 8.92178,8.475013 12.99219,8.564453 4.1006,0.09011 8.43018,-2.567629 13.00391,-8.601562 -2.76113,-3.478408 -5.3236,-5.879779 -7.59961,-7.173829 -1.86966,-1.063016 -3.54732,-1.50898 -5.1543,-1.511718 z m -0.23828,1.550781 a 7.4999988,7.4999988 0 0 1 7.5,7.5 7.4999988,7.4999988 0 0 1 -7.5,7.5 7.4999988,7.4999988 0 0 1 -7.5,-7.5 7.4999988,7.4999988 0 0 1 7.5,-7.5 z m 3.05859,2.595703 a 1.4999996,1.4999996 0 0 0 -1.5,1.5 1.4999996,1.4999996 0 0 0 1.5,1.5 1.4999996,1.4999996 0 0 0 1.5,-1.5 1.4999996,1.4999996 0 0 0 -1.5,-1.5 z m -5.36719,0.669922 a 2.4999996,2.4999996 0 0 0 -2.5,2.5 2.4999996,2.4999996 0 0 0 2.5,2.5 2.4999996,2.4999996 0 0 0 2.5,-2.5 2.4999996,2.4999996 0 0 0 -2.5,-2.5 z"
       style="opacity:1;fill:#cccccc;fill-opacity:1;fill-rule:nonzero;stroke:none;stroke-width:3;stroke-linecap:round;stroke-linejoin:round;stroke-miterlimit:4;stroke-dasharray:none;stroke-opacity:1"
       inkscape:connector-curvature="0" />
    <path
       inkscape:connector-curvature="0"
       style="opacity:1;fill:#44cbe8;fill-opacity:1;fill-rule:nonzero;stroke:none;stroke-width:3;stroke-linecap:round;stroke-linejoin:round;stroke-miterlimit:4;stroke-dasharray:none;stroke-opacity:1"
       d="m 482.22241,93.372939 a 19.999998,19.999998 0 0 0 -20,20.000001 19.999998,19.999998 0 0 0 20,20 19.999998,19.999998 0 0 0 20,-20 19.999998,19.999998 0 0 0 -20,-20.000001 z m 0.0586,9.193361 c 2.14587,0.0172 4.38099,0.61757 6.62695,1.89453 2.99462,1.70262 6.04208,4.56394 9.27539,8.84766 l 0.66406,0.88086 -0.64257,0.89648 c -5.14664,7.17919 -10.57695,10.88252 -16.25196,10.75782 -5.675,-0.12471 -11.02143,-4.0068 -16.1582,-10.72071 l -0.73633,-0.96093 0.7832,-0.92188 c 4.28363,-5.04291 8.78601,-9.53775 14.32618,-10.5 0.69252,-0.12028 1.39799,-0.17957 2.11328,-0.17383 z m -0.0117,2.99024 c -0.53566,-9.2e-4 -1.06344,0.0476 -1.58789,0.13867 -3.89481,0.67647 -7.78607,4.18352 -11.6543,8.58398 4.55333,5.62149 8.92178,8.47502 12.99219,8.56446 4.1006,0.0901 8.43018,-2.56763 13.00391,-8.60157 -2.76113,-3.4784 -5.3236,-5.87977 -7.59961,-7.17382 -1.86966,-1.06302 -3.54732,-1.50898 -5.1543,-1.51172 z m -0.23828,1.55078 a 7.4999988,7.4999988 0 0 1 7.5,7.5 7.4999988,7.4999988 0 0 1 -7.5,7.5 7.4999988,7.4999988 0 0 1 -7.5,-7.5 7.4999988,7.4999988 0 0 1 7.5,-7.5 z m 3.05859,2.5957 a 1.4999996,1.4999996 0 0 0 -1.5,1.5 1.4999996,1.4999996 0 0 0 1.5,1.5 1.4999996,1.4999996 0 0 0 1.5,-1.5 1.4999996,1.4999996 0 0 0 -1.5,-1.5 z m -5.36719,0.66992 a 2.4999996,2.4999996 0 0 0 -2.5,2.5 2.4999996,2.4999996 0 0 0 2.5,2.5 2.4999996,2.4999996 0 0 0 2.5,-2.5 2.4999996,2.4999996 0 0 0 -2.5,-2.5 z"
       id="path4290" />
    <g
       transform="matrix(0,-1,-1,0,1154.6083,53.407876)"
       id="g4188"
       inkscape:label="Layer 1">
      <path
         id="path4190"
         transform="translate(0,1012.3622)"
         d="M 20,0 A 20,20 0 0 0 0,20 20,20 0 0 0 20,40 20,20 0 0 0 40,20 20,20 0 0 0 20,0 Z M 9.59375,12.175781 20.3125,22.892578 30.763672,12.443359 34.298828,15.978516 20.21875,30.056641 16.683594,26.521484 16.777344,26.427734 6.0585938,15.710938 9.59375,12.175781 Z"
         style="opacity:1;fill:#ffffff;fill-opacity:1;fill-rule:nonzero;stroke:none;stroke-width:1;stroke-linecap:round;stroke-linejoin:round;stroke-miterlimit:4;stroke-dasharray:none;stroke-opacity:1"
         inkscape:connector-curvature="0" />
    </g>
    <g
       style="fill:#cccccc;fill-opacity:1"
       inkscape:label="Layer 1"
       id="g4192"
       transform="matrix(0,-1,-1,0,1154.6126,93.579944)">
      <path
         inkscape:connector-curvature="0"
         style="opacity:1;fill:#cccccc;fill-opacity:1;fill-rule:nonzero;stroke:none;stroke-width:1;stroke-linecap:round;stroke-linejoin:round;stroke-miterlimit:4;stroke-dasharray:none;stroke-opacity:1"
         d="M 20,0 A 20,20 0 0 0 0,20 20,20 0 0 0 20,40 20,20 0 0 0 40,20 20,20 0 0 0 20,0 Z M 9.59375,12.175781 20.3125,22.892578 30.763672,12.443359 34.298828,15.978516 20.21875,30.056641 16.683594,26.521484 16.777344,26.427734 6.0585938,15.710938 9.59375,12.175781 Z"
         transform="translate(0,1012.3622)"
         id="path4194" />
    </g>
    <g
       transform="matrix(0,-1,-1,0,1154.6126,133.356)"
       id="g4196"
       inkscape:label="Layer 1"
       style="fill:#44cbe8;fill-opacity:1">
      <path
         id="path4198"
         transform="translate(0,1012.3622)"
         d="M 20,0 A 20,20 0 0 0 0,20 20,20 0 0 0 20,40 20,20 0 0 0 40,20 20,20 0 0 0 20,0 Z M 9.59375,12.175781 20.3125,22.892578 30.763672,12.443359 34.298828,15.978516 20.21875,30.056641 16.683594,26.521484 16.777344,26.427734 6.0585938,15.710938 9.59375,12.175781 Z"
         style="opacity:1;fill:#44cbe8;fill-opacity:1;fill-rule:nonzero;stroke:none;stroke-width:1;stroke-linecap:round;stroke-linejoin:round;stroke-miterlimit:4;stroke-dasharray:none;stroke-opacity:1"
         inkscape:connector-curvature="0" />
    </g>
    <path
       style="opacity:1;fill:#ffffff;fill-opacity:1;fill-rule:nonzero;stroke:none;stroke-width:5;stroke-linecap:round;stroke-linejoin:round;stroke-miterlimit:4;stroke-dasharray:none;stroke-opacity:1"
       d="M 219.87109 0.12695312 A 20 20 0 0 0 199.87109 20.126953 A 20 20 0 0 0 219.87109 40.126953 A 20 20 0 0 0 239.87109 20.126953 A 20 20 0 0 0 219.87109 0.12695312 z M 217.87109 8.1269531 L 221.87109 8.1269531 L 221.87109 10.330078 A 10 10 0 0 1 225.38086 11.789062 L 226.94336 10.228516 L 229.77148 13.056641 L 228.21094 14.617188 A 10 10 0 0 1 229.66016 18.126953 L 231.87109 18.126953 L 231.87109 22.126953 L 229.66797 22.126953 A 10 10 0 0 1 228.20898 25.634766 L 229.77148 27.197266 L 226.94336 30.027344 L 225.38086 28.464844 A 10 10 0 0 1 221.87109 29.914062 L 221.87109 32.126953 L 217.87109 32.126953 L 217.87109 29.923828 A 10 10 0 0 1 214.36328 28.464844 L 212.80078 30.027344 L 209.97266 27.197266 L 211.5332 25.636719 A 10 10 0 0 1 210.08398 22.126953 L 207.87109 22.126953 L 207.87109 18.126953 L 210.07617 18.126953 A 10 10 0 0 1 211.53516 14.619141 L 209.97266 13.056641 L 212.80078 10.228516 L 214.36133 11.789062 A 10 10 0 0 1 217.87109 10.341797 L 217.87109 8.1269531 z M 219.87109 15.126953 A 5 5 0 0 0 214.87109 20.126953 A 5 5 0 0 0 219.87109 25.126953 A 5 5 0 0 0 224.87109 20.126953 A 5 5 0 0 0 219.87109 15.126953 z "
       transform="translate(22.35132,13.199405)"
       id="path4195" />
    <path
       id="path4212"
       d="m 242.22241,53.3004 a 20,20 0 0 0 -20,20 20,20 0 0 0 20,20 20,20 0 0 0 20,-20 20,20 0 0 0 -20,-20 z m -2,8 4,0 0,2.203125 a 10,10 0 0 1 3.50977,1.458984 l 1.5625,-1.560546 2.82812,2.828125 -1.56054,1.560547 a 10,10 0 0 1 1.44922,3.509765 l 2.21093,0 0,4 -2.20312,0 a 10,10 0 0 1 -1.45899,3.507813 l 1.5625,1.5625 -2.82812,2.830078 -1.5625,-1.5625 a 10,10 0 0 1 -3.50977,1.449218 l 0,2.212891 -4,0 0,-2.203125 a 10,10 0 0 1 -3.50781,-1.458984 l -1.5625,1.5625 -2.82812,-2.830078 1.56054,-1.560547 A 10,10 0 0 1 232.4353,75.3004 l -2.21289,0 0,-4 2.20508,0 a 10,10 0 0 1 1.45899,-3.507812 l -1.5625,-1.5625 2.82812,-2.828125 1.56055,1.560546 a 10,10 0 0 1 3.50976,-1.447265 l 0,-2.214844 z m 2,7 a 5,5 0 0 0 -5,5 5,5 0 0 0 5,5 5,5 0 0 0 5,-5 5,5 0 0 0 -5,-5 z"
       style="opacity:1;fill:#cccccc;fill-opacity:1;fill-rule:nonzero;stroke:none;stroke-width:5;stroke-linecap:round;stroke-linejoin:round;stroke-miterlimit:4;stroke-dasharray:none;stroke-opacity:1"
       inkscape:connector-curvature="0" />
    <path
       inkscape:connector-curvature="0"
       style="opacity:1;fill:#44cbe8;fill-opacity:1;fill-rule:nonzero;stroke:none;stroke-width:5;stroke-linecap:round;stroke-linejoin:round;stroke-miterlimit:4;stroke-dasharray:none;stroke-opacity:1"
       d="m 242.22241,93.330428 a 20,20 0 0 0 -20,20.000002 20,20 0 0 0 20,20 20,20 0 0 0 20,-20 20,20 0 0 0 -20,-20.000002 z m -2,8.000002 4,0 0,2.20312 a 10,10 0 0 1 3.50977,1.45899 l 1.5625,-1.56055 2.82812,2.82813 -1.56054,1.56054 a 10,10 0 0 1 1.44922,3.50977 l 2.21093,0 0,4 -2.20312,0 a 10,10 0 0 1 -1.45899,3.50781 l 1.5625,1.5625 -2.82812,2.83008 -1.5625,-1.5625 a 10,10 0 0 1 -3.50977,1.44922 l 0,2.21289 -4,0 0,-2.20313 a 10,10 0 0 1 -3.50781,-1.45898 l -1.5625,1.5625 -2.82812,-2.83008 1.56054,-1.56055 a 10,10 0 0 1 -1.44922,-3.50976 l -2.21289,0 0,-4 2.20508,0 a 10,10 0 0 1 1.45899,-3.50781 l -1.5625,-1.5625 2.82812,-2.82813 1.56055,1.56055 a 10,10 0 0 1 3.50976,-1.44727 l 0,-2.21484 z m 2,7 a 5,5 0 0 0 -5,5 5,5 0 0 0 5,5 5,5 0 0 0 5,-5 5,5 0 0 0 -5,-5 z"
       id="path4214" />
  </g>
</svg>
